<svg xmlns="http://www.w3.org/2000/svg" version="1.1" xmlns:xlink="http://www.w3.org/1999/xlink" xmlns:svgjs="http://svgjs.com/svgjs" width="512" height="512" x="0" y="0" viewBox="0 0 128 128" style="enable-background:new 0 0 512 512" xml:space="preserve" class=""><g><g xmlns="http://www.w3.org/2000/svg" id="font"><path d="m74.723 31.691a24 24 0 0 0 -23.939-22.291h-11.7a24 24 0 0 0 -23.94 22.291l-5.953 83.535a6 6 0 0 0 5.985 6.426h8.024a6 6 0 0 0 5.985-5.573l2.255-31.644a4 4 0 0 1 3.99-3.716h19.011a4 4 0 0 1 3.99 3.716l2.255 31.644a6 6 0 0 0 5.985 5.573h8.021a6 6 0 0 0 5.985-6.426zm-41.291 24.744 1.222-17.148a10.522 10.522 0 0 1 9.473-9.86 10.284 10.284 0 0 1 11.063 9.521l1.246 17.487a4 4 0 0 1 -3.99 4.284h-15.025a4 4 0 0 1 -3.989-4.284z" fill="#e55c55" data-original="#e55c55" class=""></path><path d="m87.339 7.575h23.966a0 0 0 0 1 0 0v38.815a5 5 0 0 1 -5 5h-13.966a5 5 0 0 1 -5-5v-38.815a0 0 0 0 1 0 0z" fill="#464660" transform="matrix(-.866 -.5 .5 -.866 170.597 104.677)" data-original="#464660"></path><path d="m88.368 48.455 10.378 5.992 19.354-33.527a5.051 5.051 0 0 0 -1.776-6.92l-6.048-3.492z" fill="#3b3b56" data-original="#3b3b56"></path><rect fill="#3c2946" height="11.143" rx="5.57" transform="matrix(-.866 -.5 .5 -.866 134.256 141.017)" width="32.115" x="69.963" y="46.951" data-original="#3c2946"></rect><path d="m60.358 72.967.061 18.711a3 3 0 0 0 4.492 2.594l16.236-9.3a5 5 0 0 0 1.844-1.838l11.226-19.447-21.964-12.681-11.225 19.444a5 5 0 0 0 -.67 2.517z" fill="#eab353" data-original="#eab353"></path><path d="m61.919 94.267a2.977 2.977 0 0 0 2.992.005l16.236-9.3a5 5 0 0 0 1.844-1.838l11.226-19.447-10.982-6.34z" fill="#dda243" data-original="#dda243"></path><path d="m83.235 57.347 9.082 5.243a5.569 5.569 0 0 0 7.609-2.038 5.569 5.569 0 0 0 -2.038-7.608l-9.082-5.244z" fill="#372344" data-original="#372344"></path><path d="m62.321 95.567a2 2 0 0 1 -1.73-3l12.037-20.849a2 2 0 1 1 3.464 2l-12.037 20.849a2 2 0 0 1 -1.734 1z" fill="#ce9138" data-original="#ce9138"></path></g></g></svg>