<svg xmlns="http://www.w3.org/2000/svg" enable-background="new 0 0 28 28" viewBox="0 0 28 28"><path fill="#DEFF8F" d="M15.879,4.008c1.751-2.396,5.574-1.223,4.347,4.124c-1.227,5.347-6.653,19.707-8.784,19.042c-2.13-0.665-4.242-0.523-1.51-8.204S14.092,6.453,15.879,4.008z"/><path d="M10.376,26c-0.383,0-0.762-0.073-1.125-0.216c-1.44-0.571-2.266-2.193-1.921-3.734c-0.001-0.059,0.009-0.119,0.032-0.177l0.083-0.216L13.9,4.252c0.038-0.111,0.039-0.538-0.021-0.972c-0.026-0.143-0.02-0.292,0.022-0.438l0.003,0c0.008-0.04,0.02-0.078,0.036-0.113C14.054,2.41,14.396,2,15.333,2c0.689,0,1.59,0.208,2.539,0.584c0.786,0.314,1.497,0.706,2,1.102c0.749,0.581,1.022,1.159,0.812,1.719c-0.013,0.034-0.029,0.067-0.049,0.097c-0.022,0.034-0.076,0.108-0.105,0.136c0.005,0.002-0.071,0.111-0.188,0.202c-0.266,0.24-0.564,0.581-0.615,0.688L13.21,24.177c-0.023,0.061-0.057,0.117-0.1,0.164c-0.549,0.996-1.549,1.62-2.651,1.652C10.432,25.998,10.404,26,10.376,26z M8.338,22.12c-0.002,0.022-0.007,0.044-0.013,0.066c-0.288,1.094,0.28,2.266,1.293,2.668c0.223,0.088,0.454,0.137,0.688,0.145c0.022-0.003,0.044-0.005,0.067-0.005c0.801-0.003,1.53-0.471,1.906-1.22c0.011-0.022,0.023-0.042,0.037-0.062L18.79,6.177c0.142-0.407,0.833-1.035,0.911-1.105c0.007-0.01,0.024-0.032,0.044-0.055c-0.02-0.076-0.124-0.26-0.488-0.543c-0.434-0.34-1.056-0.681-1.755-0.96C16.681,3.188,15.89,3,15.333,3c-0.372,0-0.458,0.087-0.459,0.088h0c-0.005,0.017-0.01,0.033-0.017,0.049c0.045,0.241,0.139,1.04-0.02,1.464L8.338,22.12z"/><path d="M10.621 15.018c-.16 0-.317-.077-.414-.219-.155-.229-.096-.54.132-.695l.218-.148c.842-.573 1.638-1.114 1.967-1.307.459-.277.868-.371 1.264-.461.303-.07.59-.135.915-.289.584-.274 1.305-1.042 1.534-1.315l1.61-1.727c.189-.202.504-.212.707-.024.202.188.212.505.024.707l-1.592 1.706c-.021.026-.953 1.132-1.857 1.558-.422.199-.792.283-1.117.358-.348.08-.649.149-.976.346-.306.179-1.125.736-1.917 1.274l-.218.148C10.815 14.99 10.718 15.018 10.621 15.018zM11.676 22.358c-.091 0-.182-.018-.266-.053-.172-.073-.303-.208-.37-.383-.136-.327.013-.72.345-.882.205-.084.402-.082.571-.008.169.074.297.21.362.383.137.351-.024.743-.37.889C11.861 22.34 11.768 22.358 11.676 22.358zM11.558 21.382c-.155.065-.233.24-.175.389.028.075.091.142.171.176.075.033.162.036.238.004.001 0 .002-.001.004-.002l-.044-.107.046.107c.169-.084.231-.252.17-.398-.026-.068-.09-.134-.17-.167C11.721 21.351 11.633 21.351 11.558 21.382zM11.556 21.383c0 0-.001 0-.001 0C11.555 21.383 11.555 21.383 11.556 21.383zM12.325 19.424c-.394 0-.766-.226-.942-.611-.023-.051-.038-.104-.043-.159-.125-.485.1-1.002.555-1.224.533-.241 1.126-.011 1.367.515.22.544-.003 1.143-.5 1.383-.006.003-.012.005-.018.008C12.606 19.396 12.464 19.424 12.325 19.424zM12.375 18.556l.168.322-.167-.346C12.375 18.54 12.375 18.548 12.375 18.556zM12.699 15.651c-.094 0-.189-.019-.276-.058-.17-.075-.299-.212-.362-.387-.135-.337.029-.742.37-.887.177-.074.375-.073.547.002.17.074.299.212.363.388.138.342-.028.747-.376.889C12.879 15.634 12.789 15.651 12.699 15.651zM12.586 14.673c-.16.066-.24.242-.179.395.024.067.088.135.169.171.077.033.165.035.242.003l-.043-.106.044.105c.16-.068.236-.239.176-.391-.025-.069-.089-.137-.17-.173C12.748 14.645 12.662 14.643 12.586 14.673zM12.583 14.675C12.583 14.675 12.583 14.675 12.583 14.675 12.583 14.675 12.583 14.675 12.583 14.675zM18.509 5.57c-.612 0-1.373-.281-1.639-.388-.64-.254-2.096-.936-1.79-1.765.073-.196.26-.327.469-.327l.003.5 0 .001.467.172c.044-.119.012-.216-.003-.24.06.1.452.422 1.225.729.667.267 1.124.328 1.309.319.134-.132.339-.182.526-.109.258.098.388.387.29.645-.063.167-.195.301-.371.378C18.856 5.546 18.689 5.57 18.509 5.57z"/></svg>