<svg xmlns="http://www.w3.org/2000/svg" version="1.1" xmlns:xlink="http://www.w3.org/1999/xlink" xmlns:svgjs="http://svgjs.com/svgjs" width="512" height="512" x="0" y="0" viewBox="0 0 512 512" style="enable-background:new 0 0 512 512" xml:space="preserve" class=""><g>
<g xmlns="http://www.w3.org/2000/svg">
	<path style="" d="M401.069,298.663c-4.71,0-8.533-3.814-8.533-8.533v-25.6H119.464v25.6   c0,4.719-3.823,8.533-8.533,8.533s-8.533-3.814-8.533-8.533v-34.134c0-4.719,3.823-8.533,8.533-8.533h290.138   c4.71,0,8.533,3.814,8.533,8.533v34.134C409.603,294.849,405.78,298.663,401.069,298.663z" fill="#7383bf" data-original="#7383bf" class=""></path>
	<path style="" d="M256,264.529c-4.71,0-8.533-3.814-8.533-8.533v-25.6c0-4.719,3.823-8.533,8.533-8.533   c4.71,0,8.533,3.814,8.533,8.533v25.6C264.533,260.715,260.71,264.529,256,264.529z" fill="#7383bf" data-original="#7383bf" class=""></path>
</g>
<path xmlns="http://www.w3.org/2000/svg" style="" d="M196.274,435.19H25.588c-9.421,0-17.058-7.637-17.058-17.058V307.188  c0-9.421,7.637-17.058,17.058-17.058h170.687c9.421,0,17.058,7.637,17.058,17.058v110.944  C213.333,427.553,205.695,435.19,196.274,435.19z" fill="#ebba16" data-original="#ebba16"></path>
<path xmlns="http://www.w3.org/2000/svg" style="" d="M196.274,443.732H25.588c-9.421,0-17.058-7.637-17.058-17.058v-17.075h204.803v17.075  C213.333,436.095,205.695,443.732,196.274,443.732z" fill="#e7eced" data-original="#e7eced"></path>
<rect xmlns="http://www.w3.org/2000/svg" x="85.33" y="443.732" style="" width="51.201" height="51.201" fill="#afb6bb" data-original="#afb6bb"></rect>
<path xmlns="http://www.w3.org/2000/svg" style="" d="M162.132,512H59.73c-4.71,0-8.533-3.814-8.533-8.533s3.823-8.533,8.533-8.533h102.402  c4.71,0,8.533,3.814,8.533,8.533S166.842,512,162.132,512z" fill="#e7eced" data-original="#e7eced"></path>
<path xmlns="http://www.w3.org/2000/svg" style="" d="M486.412,435.19H315.726c-9.421,0-17.058-7.637-17.058-17.058V307.188  c0-9.421,7.637-17.058,17.058-17.058h170.687c9.421,0,17.058,7.637,17.058,17.058v110.944  C503.471,427.553,495.833,435.19,486.412,435.19z" fill="#ebba16" data-original="#ebba16"></path>
<path xmlns="http://www.w3.org/2000/svg" style="" d="M486.412,443.732H315.726c-9.421,0-17.058-7.637-17.058-17.058v-17.075h204.803v17.075  C503.471,436.095,495.833,443.732,486.412,443.732z" fill="#e7eced" data-original="#e7eced"></path>
<rect xmlns="http://www.w3.org/2000/svg" x="375.469" y="443.732" style="" width="51.201" height="51.201" fill="#afb6bb" data-original="#afb6bb"></rect>
<path xmlns="http://www.w3.org/2000/svg" style="" d="M452.27,503.467H349.868c-4.71,0-8.533-3.814-8.533-8.533s3.823-8.533,8.533-8.533H452.27  c4.71,0,8.533,3.814,8.533,8.533S456.98,503.467,452.27,503.467z" fill="#e7eced" data-original="#e7eced"></path>
<path xmlns="http://www.w3.org/2000/svg" style="" d="M341.343,145.052H170.657c-9.421,0-17.058-7.637-17.058-17.058V17.058  C153.598,7.637,161.236,0,170.657,0h170.687c9.421,0,17.058,7.637,17.058,17.058v110.935  C358.402,137.415,350.764,145.052,341.343,145.052z" fill="#dd352e" data-original="#dd352e"></path>
<path xmlns="http://www.w3.org/2000/svg" style="" d="M341.343,153.594H170.657c-9.421,0-17.058-7.637-17.058-17.058V119.46h204.803v17.075  C358.402,145.957,350.764,153.594,341.343,153.594z" fill="#e7eced" data-original="#e7eced"></path>
<rect xmlns="http://www.w3.org/2000/svg" x="230.4" y="153.594" style="" width="51.201" height="51.201" fill="#afb6bb" data-original="#afb6bb"></rect>
<path xmlns="http://www.w3.org/2000/svg" style="" d="M307.201,213.328H204.799c-4.71,0-8.533-3.814-8.533-8.533s3.823-8.533,8.533-8.533h102.402  c4.71,0,8.533,3.814,8.533,8.533S311.911,213.328,307.201,213.328z" fill="#e7eced" data-original="#e7eced"></path>
<g xmlns="http://www.w3.org/2000/svg">
</g>
<g xmlns="http://www.w3.org/2000/svg">
</g>
<g xmlns="http://www.w3.org/2000/svg">
</g>
<g xmlns="http://www.w3.org/2000/svg">
</g>
<g xmlns="http://www.w3.org/2000/svg">
</g>
<g xmlns="http://www.w3.org/2000/svg">
</g>
<g xmlns="http://www.w3.org/2000/svg">
</g>
<g xmlns="http://www.w3.org/2000/svg">
</g>
<g xmlns="http://www.w3.org/2000/svg">
</g>
<g xmlns="http://www.w3.org/2000/svg">
</g>
<g xmlns="http://www.w3.org/2000/svg">
</g>
<g xmlns="http://www.w3.org/2000/svg">
</g>
<g xmlns="http://www.w3.org/2000/svg">
</g>
<g xmlns="http://www.w3.org/2000/svg">
</g>
<g xmlns="http://www.w3.org/2000/svg">
</g>
</g></svg>