<svg xmlns="http://www.w3.org/2000/svg" version="1.1" xmlns:xlink="http://www.w3.org/1999/xlink" xmlns:svgjs="http://svgjs.com/svgjs" width="512" height="512" x="0" y="0" viewBox="0 0 512.00003 512" style="enable-background:new 0 0 512 512" xml:space="preserve" class=""><g><path xmlns="http://www.w3.org/2000/svg" d="m469.414062 76.273438v211.230468c0 120.9375-95.246093 219.214844-213.414062 219.214844-118.480469 0-213.414062-98.640625-213.414062-219.214844v-211.230468c0-7.589844 5.597656-14.03125 13.113281-15.085938 1.261719-.175781 125.96875-18.054688 178.234375-50.257812l14.070312-8.664063c2.449219-1.515625 5.222656-2.265625 7.996094-2.265625s5.546875.75 7.996094 2.265625l14.058594 8.664063c52.328124 32.234374 176.984374 50.082031 178.246093 50.257812 7.515625 1.054688 13.113281 7.496094 13.113281 15.085938zm0 0" fill="#00b6bd" data-original="#00b6bd" style="" class=""></path><path xmlns="http://www.w3.org/2000/svg" d="m469.414062 76.273438v211.230468c0 120.9375-95.246093 219.214844-213.414062 219.214844v-506.71875c2.773438 0 5.546875.75 7.996094 2.265625l14.058594 8.664063c52.328124 32.234374 176.984374 50.082031 178.246093 50.257812 7.515625 1.054688 13.113281 7.496094 13.113281 15.085938zm0 0" fill="#007579" data-original="#007579" style="" class=""></path><path xmlns="http://www.w3.org/2000/svg" d="m408.503906 109.136719c-.945312-.132813-94.832031-13.605469-133.832031-37.621094l-10.675781-6.582031c-2.449219-1.503906-5.222656-2.265625-7.996094-2.265625s-5.546875.761719-7.996094 2.265625l-10.675781 6.582031c-39 24.015625-132.886719 37.488281-133.832031 37.621094-7.515625 1.054687-13.105469 7.496093-13.105469 15.085937v149.808594c0 67.140625 38.15625 126.628906 95.695313 154.160156 22.625 10.816406 46.621093 15.835938 69.914062 15.847656 10.707031.007813 21.28125-1.046874 31.503906-3.078124 32.558594-6.421876 62.210938-22.632813 85.75-46.863282 26.226563-26.992187 43.011719-62.636718 47.265625-100.386718.722657-6.503907 1.089844-13.125 1.089844-19.679688v-149.808594c0-7.589844-5.589844-14.03125-13.105469-15.085937zm-17.371094 164.894531c0 5.425781-.304687 10.910156-.90625 16.273438-3.492187 31.066406-17.277343 60.386718-38.835937 82.550781-19.199219 19.78125-43.335937 32.984375-69.820313 38.21875-8.289062 1.644531-16.863281 2.507812-25.570312 2.496093-18.894531-.007812-38.378906-4.070312-56.757812-12.871093-47.613282-22.785157-78.375-72.5-78.375-126.667969v-136.777344c104.382812-17.523437 133.558593-40.910156 135.132812-41.445312 1.351562.464844 30.964844 23.960937 135.132812 41.445312zm0 0" fill="#ffe9cc" data-original="#ffe9cc" style="" class=""></path><path xmlns="http://www.w3.org/2000/svg" d="m421.609375 124.222656v149.808594c0 6.554688-.367187 13.175781-1.089844 19.679688-4.253906 37.75-21.039062 73.394531-47.265625 100.386718-23.539062 24.230469-53.191406 40.441406-85.75 46.863282-10.222656 2.03125-20.796875 3.085937-31.503906 3.078124v-30.46875c8.707031.011719 17.28125-.851562 25.570312-2.496093 26.484376-5.234375 50.621094-18.4375 69.820313-38.21875 21.558594-22.164063 35.34375-51.484375 38.835937-82.550781.601563-5.363282.90625-10.847657.90625-16.273438v-136.777344c-104.167968-17.484375-133.78125-40.980468-135.132812-41.445312v-33.140625c2.773438 0 5.546875.761719 7.996094 2.265625l10.675781 6.582031c39 24.015625 132.886719 37.488281 133.832031 37.621094 7.515625 1.054687 13.105469 7.496093 13.105469 15.085937zm0 0" fill="#ffd399" data-original="#ffd399" style=""></path><path xmlns="http://www.w3.org/2000/svg" d="m496.761719 159.664062h-481.523438c-8.414062 0-15.238281 6.820313-15.238281 15.238282v162.644531c0 8.414063 6.824219 15.238281 15.238281 15.238281h481.523438c8.414062 0 15.238281-6.824218 15.238281-15.238281v-162.644531c0-8.417969-6.824219-15.238282-15.238281-15.238282zm0 0" fill="#ffb655" data-original="#ffb655" style=""></path><path xmlns="http://www.w3.org/2000/svg" d="m512 174.902344v162.640625c0 8.421875-6.828125 15.238281-15.238281 15.238281h-240.761719v-193.117188h240.761719c8.410156 0 15.238281 6.816407 15.238281 15.238282zm0 0" fill="#ff9100" data-original="#ff9100" style="" class=""></path><path xmlns="http://www.w3.org/2000/svg" d="m481.523438 195.21875v122.007812c0 2.804688-2.273438 5.078126-5.078126 5.078126h-440.890624c-2.804688 0-5.078126-2.273438-5.078126-5.078126v-122.007812c0-2.804688 2.273438-5.078125 5.078126-5.078125h440.890624c2.804688 0 5.078126 2.273437 5.078126 5.078125zm0 0" fill="#ffe9cc" data-original="#ffe9cc" style="" class=""></path><path xmlns="http://www.w3.org/2000/svg" d="m481.523438 195.21875v122.007812c0 2.804688-2.273438 5.078126-5.078126 5.078126h-220.445312v-132.164063h220.445312c2.804688 0 5.078126 2.277344 5.078126 5.078125zm0 0" fill="#ffd399" data-original="#ffd399" style=""></path><path xmlns="http://www.w3.org/2000/svg" d="m135.742188 232.273438h43.722656c8.417968 0 15.238281-6.824219 15.238281-15.238282 0-8.414062-6.820313-15.238281-15.238281-15.238281h-43.722656c-19.207032 0-34.832032 15.625-34.832032 34.832031 0 19.207032 15.625 34.832032 34.832032 34.832032h24.128906c2.402344 0 4.355468 1.957031 4.355468 4.355468 0 2.402344-1.953124 4.355469-4.355468 4.355469h-43.722656c-8.417969 0-15.238282 6.824219-15.238282 15.238281 0 8.417969 6.820313 15.238282 15.238282 15.238282h43.722656c19.207031 0 34.832031-15.625 34.832031-34.832032 0-19.207031-15.625-34.832031-34.832031-34.832031h-24.128906c-2.402344 0-4.355469-1.953125-4.355469-4.355469s1.953125-4.355468 4.355469-4.355468zm0 0" fill="#ffb655" data-original="#ffb655" style=""></path><path xmlns="http://www.w3.org/2000/svg" d="m238.515625 232.273438h43.722656c8.417969 0 15.238281-6.824219 15.238281-15.238282 0-8.414062-6.820312-15.238281-15.238281-15.238281h-43.722656c-19.207031 0-34.832031 15.625-34.832031 34.832031 0 19.207032 15.625 34.832032 34.832031 34.832032h24.128906c2.402344 0 4.355469 1.957031 4.355469 4.355468 0 2.402344-1.953125 4.355469-4.355469 4.355469h-43.722656c-8.414063 0-15.238281 6.824219-15.238281 15.238281 0 8.417969 6.824218 15.238282 15.238281 15.238282h43.722656c19.207031 0 34.832031-15.625 34.832031-34.832032 0-19.207031-15.625-34.832031-34.832031-34.832031h-24.128906c-2.402344 0-4.355469-1.953125-4.355469-4.355469s1.953125-4.355468 4.355469-4.355468zm0 0" fill="#ffb655" data-original="#ffb655" style=""></path><g xmlns="http://www.w3.org/2000/svg" fill="#ff9100"><path d="m395.851562 280.171875h-48.078124v-63.136719c0-8.414062-6.824219-15.238281-15.238282-15.238281-8.417968 0-15.238281 6.824219-15.238281 15.238281v78.375c0 8.417969 6.820313 15.238282 15.238281 15.238282h63.316406c8.417969 0 15.238282-6.820313 15.238282-15.238282 0-8.414062-6.820313-15.238281-15.238282-15.238281zm0 0" fill="#ff9100" data-original="#ff9100" style="" class=""></path><path d="m297.476562 275.820312c0 19.199219-15.621093 34.832032-34.832031 34.832032h-6.644531v-30.472656h6.644531c2.40625 0 4.355469-1.960938 4.355469-4.359376 0-2.410156-1.949219-4.359374-4.355469-4.359374h-6.644531v-30.476563h6.644531c19.210938 0 34.832031 15.625 34.832031 34.835937zm0 0" fill="#ff9100" data-original="#ff9100" style="" class=""></path><path d="m282.238281 232.269531h-26.238281v-30.476562h26.238281c8.414063 0 15.238281 6.828125 15.238281 15.238281 0 8.421875-6.824218 15.238281-15.238281 15.238281zm0 0" fill="#ff9100" data-original="#ff9100" style="" class=""></path></g></g></svg>