<svg xmlns="http://www.w3.org/2000/svg" version="1.1" xmlns:xlink="http://www.w3.org/1999/xlink" xmlns:svgjs="http://svgjs.com/svgjs" width="512" height="512" x="0" y="0" viewBox="0 0 512 512" style="enable-background:new 0 0 512 512" xml:space="preserve" class=""><g>
<path xmlns="http://www.w3.org/2000/svg" style="" d="M49.548,388.129h66.065V123.871H49.548C22.184,123.871,0,146.055,0,173.42v165.161  C0,365.945,22.184,388.129,49.548,388.129z" fill="#ff8087" data-original="#ff8087" class=""></path>
<path xmlns="http://www.w3.org/2000/svg" style="" d="M33.032,338.581V173.419c0-27.365,22.183-49.548,49.548-49.548H49.548  C22.183,123.871,0,146.054,0,173.419V338.58c0,27.365,22.183,49.548,49.548,49.548H82.58  C55.216,388.129,33.032,365.946,33.032,338.581z" fill="#e6646e" data-original="#e6646e" class=""></path>
<path xmlns="http://www.w3.org/2000/svg" style="" d="M462.452,123.871h-66.065v264.258h66.065c27.365,0,49.548-22.184,49.548-49.548V173.42  C512,146.055,489.816,123.871,462.452,123.871z" fill="#a0e6ff" data-original="#a0e6ff" class=""></path>
<rect xmlns="http://www.w3.org/2000/svg" x="115.61" y="123.87" style="" width="280.77" height="264.26" fill="#5d5360" data-original="#5d5360" class=""></rect>
<path xmlns="http://www.w3.org/2000/svg" style="" d="M367.484,363.355H144.516c-2.28,0-4.129-1.849-4.129-4.129V152.774c0-2.28,1.849-4.129,4.129-4.129  h222.968c2.28,0,4.129,1.849,4.129,4.129v206.452C371.613,361.506,369.764,363.355,367.484,363.355z" fill="#d2beff" data-original="#d2beff" class=""></path>
<circle xmlns="http://www.w3.org/2000/svg" style="" cx="57.806" cy="206.45" r="24.774" fill="#5d5360" data-original="#5d5360" class=""></circle>
<path xmlns="http://www.w3.org/2000/svg" style="" d="M70.194,218.839c-13.682,0-24.774-11.092-24.774-24.774c0-3.631,0.824-7.053,2.227-10.16  c-8.602,3.885-14.614,12.495-14.614,22.547c0,13.682,11.092,24.774,24.774,24.774c10.052,0,18.662-6.012,22.547-14.614  C77.246,218.015,73.824,218.839,70.194,218.839z" fill="#4b3f4e" data-original="#4b3f4e"></path>
<circle xmlns="http://www.w3.org/2000/svg" style="" cx="454.19" cy="305.55" r="24.774" fill="#5d5360" data-original="#5d5360" class=""></circle>
<path xmlns="http://www.w3.org/2000/svg" style="" d="M466.581,317.935c-13.682,0-24.774-11.092-24.774-24.774c0-3.631,0.824-7.053,2.227-10.16  c-8.602,3.885-14.614,12.495-14.614,22.547c0,13.682,11.092,24.774,24.774,24.774c10.052,0,18.662-6.012,22.547-14.614  C473.633,317.111,470.211,317.935,466.581,317.935z" fill="#4b3f4e" data-original="#4b3f4e"></path>
<circle xmlns="http://www.w3.org/2000/svg" style="" cx="256" cy="256" r="74.32" fill="#e6cdff" data-original="#e6cdff" class=""></circle>
<g xmlns="http://www.w3.org/2000/svg">
	<path style="" d="M41.29,305.548h-8.258c-4.565,0-8.258-3.694-8.258-8.258s3.694-8.258,8.258-8.258h8.258   c4.565,0,8.258,3.694,8.258,8.258S45.855,305.548,41.29,305.548z" fill="#5d5360" data-original="#5d5360" class=""></path>
	<path style="" d="M57.806,330.323c-4.565,0-8.258-3.694-8.258-8.258v-8.258c0-4.565,3.694-8.258,8.258-8.258   s8.258,3.694,8.258,8.258v8.258C66.064,326.629,62.371,330.323,57.806,330.323z" fill="#5d5360" data-original="#5d5360" class=""></path>
	<path style="" d="M470.71,206.452h8.258c4.565,0,8.258,3.694,8.258,8.258s-3.694,8.258-8.258,8.258h-8.258   c-4.565,0-8.258-3.694-8.258-8.258S466.145,206.452,470.71,206.452z" fill="#5d5360" data-original="#5d5360" class=""></path>
	<path style="" d="M429.419,206.452h8.258c4.565,0,8.258,3.694,8.258,8.258s-3.694,8.258-8.258,8.258h-8.258   c-4.565,0-8.258-3.694-8.258-8.258S424.855,206.452,429.419,206.452z" fill="#5d5360" data-original="#5d5360" class=""></path>
	<path style="" d="M454.193,222.968c4.565,0,8.258,3.694,8.258,8.258v8.258c0,4.565-3.694,8.258-8.258,8.258   s-8.258-3.694-8.258-8.258v-8.258C445.935,226.661,449.629,222.968,454.193,222.968z" fill="#5d5360" data-original="#5d5360" class=""></path>
	<path style="" d="M454.193,181.677c4.565,0,8.258,3.694,8.258,8.258v8.258c0,4.565-3.694,8.258-8.258,8.258   s-8.258-3.694-8.258-8.258v-8.258C445.935,185.371,449.629,181.677,454.193,181.677z" fill="#5d5360" data-original="#5d5360" class=""></path>
	<path style="" d="M82.581,305.548h-8.258c-4.565,0-8.258-3.694-8.258-8.258s3.694-8.258,8.258-8.258h8.258   c4.565,0,8.258,3.694,8.258,8.258S87.145,305.548,82.581,305.548z" fill="#5d5360" data-original="#5d5360" class=""></path>
	<path style="" d="M57.806,289.032c-4.565,0-8.258-3.694-8.258-8.258v-8.258c0-4.565,3.694-8.258,8.258-8.258   s8.258,3.694,8.258,8.258v8.258C66.064,285.339,62.371,289.032,57.806,289.032z" fill="#5d5360" data-original="#5d5360" class=""></path>
</g>
<g xmlns="http://www.w3.org/2000/svg">
</g>
<g xmlns="http://www.w3.org/2000/svg">
</g>
<g xmlns="http://www.w3.org/2000/svg">
</g>
<g xmlns="http://www.w3.org/2000/svg">
</g>
<g xmlns="http://www.w3.org/2000/svg">
</g>
<g xmlns="http://www.w3.org/2000/svg">
</g>
<g xmlns="http://www.w3.org/2000/svg">
</g>
<g xmlns="http://www.w3.org/2000/svg">
</g>
<g xmlns="http://www.w3.org/2000/svg">
</g>
<g xmlns="http://www.w3.org/2000/svg">
</g>
<g xmlns="http://www.w3.org/2000/svg">
</g>
<g xmlns="http://www.w3.org/2000/svg">
</g>
<g xmlns="http://www.w3.org/2000/svg">
</g>
<g xmlns="http://www.w3.org/2000/svg">
</g>
<g xmlns="http://www.w3.org/2000/svg">
</g>
</g></svg>