<svg xmlns="http://www.w3.org/2000/svg" version="1.1" xmlns:xlink="http://www.w3.org/1999/xlink" xmlns:svgjs="http://svgjs.com/svgjs" width="512" height="512" x="0" y="0" viewBox="0 0 58 58" style="enable-background:new 0 0 512 512" xml:space="preserve" class=""><g><g xmlns="http://www.w3.org/2000/svg" id="Page-1" fill="none" fill-rule="evenodd"><g id="001---Website-UI" fill-rule="nonzero"><path id="Shape" d="m58 14v40c0 2.209139-1.790861 4-4 4h-50c-2.209139 0-4-1.790861-4-4v-40z" fill="#ecf0f1" data-original="#ecf0f1" class=""></path><rect id="Rectangle-path" fill="#b0d3f0" height="18" rx="2" width="50" x="4" y="18" data-original="#b0d3f0" class=""></rect><path id="Shape" d="m27.547 36 4.573-8.33c.2356078-.4129647.6745519-.6678933 1.15-.6678933s.9143922.2549286 1.15.6678933l4.58 8.33z" fill="#95a5a5" data-original="#95a5a5"></path><path id="Shape" d="m19.007 36 5.583-10.18c.2895608-.5054291.8275019-.8172098 1.41-.8172098s1.1204392.3117807 1.41.8172098l5.59 10.18z" fill="#7f8c8d" data-original="#7f8c8d"></path><path id="Shape" d="m58 10v4h-58v-10h25c1.1032019.0032948 1.9967052.89679813 2 2v2c.0032948 1.10320187.8967981 1.9967052 2 2z" fill="#3b97d3" data-original="#3b97d3"></path><path id="Shape" d="m58 4v6h-29c-1.1032019-.0032948-1.9967052-.89679813-2-2v-2c-.0032948-1.10320187-.8967981-1.9967052-2-2h-25c0-2.209139 1.790861-4 4-4h50c2.209139 0 4 1.790861 4 4z" fill="#285680" data-original="#285680" class=""></path><path id="Shape" d="m16 10h-11c-.55228475 0-1-.44771525-1-1s.44771525-1 1-1h11c.5522847 0 1 .44771525 1 1s-.4477153 1-1 1z" fill="#ecf0f1" data-original="#ecf0f1" class=""></path><path id="Shape" d="m23.414 9 .293-.293c.3789722-.39237889.3735524-1.01608478-.0121814-1.40181858-.3857338-.38573379-1.0094397-.39115363-1.4018186-.01218142l-.293.293-.293-.293c-.3923789-.37897221-1.0160848-.37355237-1.4018186.01218142-.3857338.3857338-.3911536 1.00943969-.0121814 1.40181858l.293.293-.293.293c-.2599566.25107447-.3642126.62287789-.2726972.9725073.0915155.3496295.3645604.6226744.7141899.7141899.3496294.0915154.7214328-.0127406.9725073-.2726972l.293-.293.293.293c.3923789.3789722 1.0160848.3735524 1.4018186-.0121814s.3911536-1.00943971.0121814-1.4018186z" fill="#285680" data-original="#285680" class=""></path><circle id="Oval" cx="52" cy="5" fill="#e64c3c" r="1" data-original="#e64c3c" class=""></circle><circle id="Oval" cx="48" cy="5" fill="#f0c419" r="1" data-original="#f0c419" class=""></circle><circle id="Oval" cx="44" cy="5" fill="#24ae5f" r="1" data-original="#24ae5f"></circle><path id="Shape" d="m26 36-6.438-12.063c-.3080042-.5764304-.9084416-.9363761-1.562-.9363761s-1.2539958.3599457-1.562.9363761l-6.438 12.063z" fill="#95a5a5" data-original="#95a5a5"></path><circle id="Oval" cx="45" cy="26" fill="#f0c419" r="3" data-original="#f0c419" class=""></circle><path id="Shape" d="m20 41h-15c-.55228475 0-1-.4477153-1-1s.44771525-1 1-1h15c.5522847 0 1 .4477153 1 1s-.4477153 1-1 1z" fill="#547580" data-original="#547580"></path><rect id="Rectangle-path" fill="#bdc3c7" height="10" rx="2" width="32" x="5" y="44" data-original="#bdc3c7"></rect><rect id="Rectangle-path" fill="#bdc3c7" height="10" rx="2" width="12" x="41" y="44" data-original="#bdc3c7"></rect><path id="Shape" d="m29 41h-5c-.5522847 0-1-.4477153-1-1s.4477153-1 1-1h5c.5522847 0 1 .4477153 1 1s-.4477153 1-1 1z" fill="#547580" data-original="#547580"></path></g></g></g></svg>